<?xml version="1.0" standalone="no"?>
<!DOCTYPE svg PUBLIC "-//W3C//DTD SVG 1.1//EN" "http://www.w3.org/Graphics/SVG/1.1/DTD/svg11.dtd">
<svg width="100%" height="100%" viewBox="0 0 196 134" version="1.1" xmlns="http://www.w3.org/2000/svg" xmlns:xlink="http://www.w3.org/1999/xlink" xml:space="preserve" style="fill-rule:evenodd;clip-rule:evenodd;stroke-linejoin:round;stroke-miterlimit:1.41421;">
    <g transform="matrix(1,0,0,1,-264,-277)">
        <g id="Layer1">
            <g transform="matrix(8.7844,0,0,8.7844,-2067.11,-2171.24)">
                <path d="M276.545,291.422C273.785,291.422 271.545,289.182 271.545,286.422C271.545,283.662 273.785,281.422 276.545,281.422C279.305,281.422 281.545,283.662 281.545,286.422C281.545,289.182 279.305,291.422 276.545,291.422M276.545,278.922C271.545,278.922 267.275,282.032 265.545,286.422C267.275,290.813 271.545,293.922 276.545,293.922C281.545,293.922 285.815,290.813 287.545,286.422C285.815,282.032 281.545,278.922 276.545,278.922" style="fill:rgb(176,190,197);fill-rule:nonzero;"/>
            </g>
            <g transform="matrix(8.7844,0,0,8.7844,-2067.11,-2171.24)">
                <path d="M276.545,283.816C275.104,283.816 273.94,284.98 273.94,286.421C273.94,287.863 275.104,289.027 276.545,289.027C277.986,289.027 279.15,287.863 279.15,286.421C279.15,284.98 277.986,283.816 276.545,283.816" style="fill:rgb(176,190,197);fill-rule:nonzero;"/>
            </g>
        </g>
    </g>
</svg>
